<svg id="svg" version="1.1" xmlns="http://www.w3.org/2000/svg" width="400" height="128.6652078774617"
     viewBox="0, 0, 400,128.6652078774617">
    <g id="svgg">
        <path id="path0"
              d="M44.256 23.685 C 43.710 23.765,42.885 23.936,42.423 24.065 C 41.961 24.194,41.321 24.345,41.000 24.400 C 40.679 24.456,39.967 24.725,39.417 25.000 C 38.867 25.274,38.342 25.501,38.250 25.503 C 38.158 25.505,37.462 25.904,36.704 26.389 C 33.642 28.345,31.344 30.862,29.556 34.220 C 29.126 35.027,28.167 37.279,28.167 37.480 C 28.167 37.599,27.953 38.158,27.692 38.723 C 27.432 39.288,27.122 40.050,27.005 40.417 C 26.888 40.783,26.616 41.475,26.400 41.954 C 26.185 42.433,25.957 43.033,25.894 43.287 C 25.832 43.542,25.530 44.338,25.224 45.056 C 24.917 45.775,24.667 46.459,24.667 46.577 C 24.667 46.695,24.506 47.153,24.311 47.596 C 24.008 48.280,23.380 49.978,22.497 52.500 C 22.384 52.821,22.039 53.760,21.729 54.587 C 21.420 55.413,21.165 56.201,21.164 56.337 C 21.162 56.472,20.901 57.221,20.583 58.000 C 20.266 58.779,20.004 59.534,20.003 59.677 C 20.001 59.820,19.809 60.420,19.575 61.010 C 19.341 61.600,19.045 62.458,18.918 62.917 C 18.790 63.375,18.465 64.425,18.195 65.250 C 17.253 68.125,16.924 72.069,17.398 74.792 C 17.546 75.640,17.667 76.493,17.667 76.688 C 17.667 77.719,19.818 82.340,20.765 83.342 C 20.986 83.577,21.167 83.831,21.167 83.908 C 21.167 84.162,23.403 86.391,24.342 87.073 C 26.223 88.439,28.218 89.504,30.417 90.314 C 31.715 90.793,32.339 91.039,34.750 92.023 C 35.392 92.285,36.254 92.605,36.667 92.735 C 37.079 92.864,38.504 93.359,39.833 93.834 C 41.162 94.309,42.587 94.795,43.000 94.913 C 43.413 95.032,45.014 95.555,46.558 96.076 C 48.103 96.597,49.381 96.999,49.400 96.970 C 49.509 96.801,50.333 93.684,50.333 93.442 C 50.333 93.282,50.602 92.213,50.931 91.067 C 51.636 88.609,51.648 88.669,50.396 88.276 C 49.339 87.945,48.430 87.530,47.488 86.950 C 47.161 86.748,46.499 86.358,46.016 86.083 C 45.534 85.808,44.826 85.390,44.445 85.154 C 44.063 84.917,43.188 84.395,42.500 83.993 C 40.108 82.594,36.333 79.145,36.333 78.359 C 36.333 78.267,36.156 77.980,35.939 77.721 C 35.722 77.462,35.342 76.875,35.095 76.417 C 34.847 75.958,34.501 75.321,34.325 75.000 C 32.029 70.804,30.959 64.056,31.830 59.250 C 33.332 50.954,36.274 45.045,40.887 41.056 C 41.362 40.646,41.900 40.178,42.083 40.018 C 42.625 39.543,44.468 38.332,45.393 37.844 C 45.864 37.595,46.400 37.307,46.583 37.204 C 47.232 36.840,49.532 35.833,49.723 35.830 C 49.830 35.829,50.629 35.602,51.500 35.326 C 54.262 34.451,58.933 33.991,61.750 34.317 C 65.326 34.730,65.809 34.819,67.608 35.391 C 69.630 36.033,72.097 37.136,72.926 37.768 C 73.213 37.987,73.508 38.167,73.581 38.167 C 74.023 38.167,77.780 41.618,78.861 43.016 C 80.667 45.354,83.163 50.415,83.169 51.750 C 83.170 51.933,83.283 52.496,83.420 53.000 C 84.018 55.196,84.333 57.891,84.333 60.808 C 84.333 64.217,84.228 64.577,83.065 65.158 L 82.311 65.535 63.947 65.510 C 43.816 65.484,44.500 65.451,44.500 66.438 C 44.500 67.069,45.056 68.873,45.429 69.452 C 45.560 69.655,45.667 69.918,45.667 70.036 C 45.668 70.340,47.201 72.621,47.952 73.435 C 49.190 74.777,52.870 77.500,53.445 77.500 C 53.535 77.500,54.028 77.728,54.542 78.006 C 57.119 79.402,59.841 79.241,63.431 77.483 C 64.722 76.851,65.861 76.333,65.963 76.333 C 66.064 76.333,66.844 76.100,67.696 75.815 C 72.355 74.254,78.059 75.018,84.583 78.078 C 85.225 78.379,85.922 78.678,86.131 78.742 C 86.341 78.807,86.828 79.040,87.215 79.261 C 87.601 79.482,88.000 79.664,88.102 79.665 C 88.292 79.667,88.833 78.433,88.833 78.001 C 88.833 77.870,89.086 77.122,89.395 76.340 C 89.905 75.048,90.191 74.261,90.969 72.000 C 91.110 71.587,91.442 70.688,91.705 70.000 C 91.968 69.313,92.249 68.488,92.328 68.167 C 92.408 67.846,92.693 66.983,92.963 66.250 C 93.680 64.302,94.539 61.671,94.678 61.000 C 94.745 60.679,95.048 59.629,95.352 58.667 L 95.905 56.917 95.908 53.000 L 95.911 49.083 95.126 46.848 C 94.694 45.618,94.152 44.339,93.920 44.005 C 93.689 43.672,93.500 43.337,93.500 43.262 C 93.500 42.123,88.326 37.215,86.000 36.148 C 85.771 36.042,85.213 35.766,84.761 35.534 C 84.308 35.302,83.371 34.910,82.677 34.664 C 80.996 34.066,80.043 33.721,78.250 33.063 C 77.425 32.761,75.962 32.241,75.000 31.907 C 74.037 31.574,72.575 31.055,71.750 30.753 C 70.154 30.171,70.078 30.144,67.250 29.162 C 66.242 28.812,64.329 28.138,63.000 27.665 C 61.671 27.192,60.358 26.741,60.083 26.663 C 59.560 26.514,55.258 25.004,54.447 24.685 C 52.166 23.786,47.025 23.282,44.256 23.685 M57.417 43.347 C 53.006 43.720,48.551 46.238,46.833 49.329 C 45.728 51.319,45.077 53.207,44.895 54.958 L 44.786 56.000 58.078 56.000 L 71.369 56.000 71.302 54.125 C 71.061 47.396,65.017 42.704,57.417 43.347 M113.250 63.172 C 104.013 63.401,102.066 64.707,101.089 71.333 C 100.446 75.689,100.779 82.481,101.680 83.408 C 101.764 83.495,101.833 83.703,101.833 83.870 C 101.833 84.191,102.618 85.545,102.858 85.639 C 102.936 85.669,103.000 85.774,103.000 85.871 C 103.000 86.353,104.825 87.711,106.083 88.166 C 107.432 88.654,111.007 88.844,116.375 88.714 L 120.500 88.613 120.500 85.473 L 120.500 82.333 115.542 82.330 C 108.068 82.324,108.083 82.337,108.083 75.750 L 108.083 71.917 108.532 71.226 C 109.548 69.666,110.346 69.477,115.750 69.524 C 120.063 69.562,120.171 69.545,120.539 68.772 C 120.943 67.925,120.715 63.948,120.242 63.588 C 119.829 63.273,118.874 62.994,118.333 63.029 C 118.104 63.045,115.817 63.109,113.250 63.172 M129.517 63.590 C 123.886 64.469,121.430 69.845,122.590 78.750 C 123.259 83.885,124.707 86.774,127.166 87.881 C 130.505 89.384,140.853 89.087,142.542 87.439 C 142.656 87.328,142.923 87.117,143.134 86.971 C 143.599 86.650,145.000 84.695,145.000 84.368 C 145.000 84.239,145.108 83.897,145.239 83.609 C 146.931 79.896,146.884 71.230,145.153 67.606 C 144.157 65.521,142.063 64.034,139.485 63.580 C 137.716 63.269,131.535 63.275,129.517 63.590 M135.917 69.365 C 137.373 69.672,138.118 70.306,139.016 72.000 C 139.540 72.989,139.636 79.682,139.139 80.583 C 138.333 82.045,137.569 82.334,134.501 82.332 C 130.599 82.331,129.887 81.827,129.322 78.670 C 128.496 74.047,130.001 69.954,132.750 69.349 C 133.300 69.228,133.825 69.109,133.917 69.084 C 134.114 69.032,134.771 69.124,135.917 69.365 M68.083 81.655 C 66.469 82.105,65.160 82.610,64.667 82.974 C 64.438 83.143,64.025 83.398,63.749 83.541 C 63.160 83.845,60.833 86.147,60.833 86.424 C 60.833 86.529,60.690 86.744,60.515 86.903 C 60.341 87.061,60.037 87.579,59.840 88.054 C 59.643 88.528,59.414 89.067,59.331 89.250 C 58.257 91.616,58.307 95.030,59.461 98.083 C 62.233 105.423,71.930 108.150,78.327 103.389 C 85.307 98.193,84.691 87.626,77.136 82.971 C 76.451 82.549,75.905 82.321,74.167 81.729 C 72.916 81.303,69.496 81.262,68.083 81.655 M92.123 83.826 C 85.461 85.940,87.119 95.777,94.083 95.453 C 101.742 95.096,101.742 83.945,94.083 83.723 C 93.258 83.700,92.376 83.746,92.123 83.826 "
              stroke="none" fill="#84c424" fill-rule="evenodd"></path>
        <path id="path1"
              d="M173.060 38.733 C 172.712 38.928,172.338 39.275,172.230 39.503 C 171.681 40.658,171.293 41.559,170.930 42.521 C 170.710 43.105,170.364 43.996,170.160 44.500 C 169.957 45.004,169.732 45.642,169.660 45.917 C 169.588 46.192,169.306 47.054,169.034 47.833 C 168.762 48.612,168.260 50.188,167.918 51.333 C 167.321 53.336,166.686 55.239,165.665 58.083 C 165.402 58.817,165.140 59.642,165.082 59.917 C 165.024 60.192,164.724 61.242,164.414 62.250 C 164.105 63.258,163.685 64.665,163.480 65.375 C 163.098 66.701,162.794 67.077,162.005 67.193 C 161.591 67.254,161.092 68.450,161.233 69.042 C 161.271 69.202,161.234 69.333,161.151 69.333 C 160.877 69.333,160.993 69.959,161.427 70.822 C 161.787 71.540,161.827 71.755,161.683 72.211 C 161.146 73.914,159.553 82.221,159.381 84.218 C 159.071 87.822,160.563 89.506,162.950 88.243 C 163.788 87.799,164.818 86.330,164.828 85.562 C 164.831 85.367,165.027 84.785,165.263 84.269 C 165.499 83.753,165.795 82.699,165.919 81.928 C 166.044 81.156,166.297 80.163,166.480 79.721 C 166.935 78.626,167.333 76.949,167.333 76.131 C 167.333 74.210,167.600 74.006,170.115 74.002 C 171.049 74.001,171.854 73.935,171.903 73.855 C 171.952 73.776,172.313 73.672,172.705 73.624 C 173.096 73.576,173.537 73.487,173.684 73.426 C 173.974 73.307,174.068 73.573,174.591 76.000 C 174.740 76.688,174.973 77.587,175.110 78.000 C 175.247 78.412,175.430 79.199,175.516 79.749 C 175.602 80.298,175.897 81.225,176.170 81.809 C 176.443 82.393,176.667 83.012,176.667 83.185 C 176.667 83.547,177.263 85.327,177.601 85.976 C 177.728 86.218,177.832 86.575,177.832 86.768 C 177.833 86.962,178.068 87.560,178.356 88.098 C 178.643 88.637,179.007 89.453,179.166 89.913 C 179.324 90.374,179.614 91.049,179.810 91.414 C 180.006 91.780,180.167 92.143,180.167 92.221 C 180.167 92.468,181.237 94.167,181.392 94.167 C 181.598 94.167,181.353 90.854,181.069 89.787 C 180.942 89.308,180.836 88.630,180.835 88.281 C 180.834 87.931,180.744 87.481,180.636 87.281 C 180.428 86.897,180.360 86.255,180.253 83.667 C 180.167 81.595,180.089 80.931,179.681 78.833 C 179.466 77.730,179.345 76.464,179.353 75.407 C 179.360 74.481,179.270 73.411,179.151 73.015 C 178.961 72.378,178.968 72.281,179.218 72.141 C 179.422 72.027,179.500 71.761,179.500 71.186 C 179.500 70.748,179.549 70.340,179.610 70.279 C 179.712 70.176,179.834 69.006,179.881 67.654 C 179.895 67.270,179.774 66.894,179.544 66.601 C 179.190 66.151,179.189 66.138,179.496 65.634 C 179.666 65.353,179.765 65.016,179.715 64.885 C 179.605 64.599,180.051 61.381,180.507 59.167 C 181.473 54.469,181.843 43.886,181.081 42.750 C 180.308 41.598,179.595 40.667,179.484 40.667 C 179.419 40.667,179.211 40.404,179.022 40.083 C 178.833 39.762,178.544 39.498,178.381 39.495 C 178.217 39.492,177.938 39.379,177.760 39.245 C 177.582 39.110,177.263 39.000,177.051 39.000 C 176.840 39.000,176.667 38.930,176.667 38.844 C 176.667 38.692,176.092 38.588,174.472 38.446 C 173.894 38.395,173.531 38.469,173.060 38.733 M220.319 43.038 C 218.794 44.720,216.207 48.724,214.580 51.917 C 213.927 53.200,213.309 54.400,213.207 54.583 C 212.927 55.088,211.391 58.373,211.268 58.730 C 211.180 58.985,211.051 59.025,210.558 58.945 C 210.226 58.891,209.196 58.765,208.269 58.664 C 207.342 58.564,205.717 58.373,204.657 58.241 C 203.598 58.108,202.309 58.000,201.792 58.000 C 200.644 58.000,200.586 57.916,200.893 56.710 C 201.740 53.390,201.528 51.849,199.983 50.089 C 198.777 48.716,196.149 49.688,195.384 51.791 C 195.325 51.952,195.078 52.383,194.836 52.750 C 194.593 53.117,194.070 54.129,193.675 55.000 C 193.280 55.871,192.775 56.921,192.553 57.333 C 192.332 57.746,192.073 58.285,191.979 58.531 C 191.830 58.923,191.689 58.993,190.862 59.089 C 188.906 59.316,186.344 60.090,184.583 60.987 C 184.033 61.267,183.454 61.497,183.296 61.498 C 182.964 61.500,182.473 62.175,182.410 62.715 C 182.386 62.918,182.315 63.281,182.253 63.523 C 182.187 63.781,182.214 64.010,182.320 64.075 C 182.419 64.136,182.500 64.317,182.500 64.476 C 182.500 65.558,184.527 66.499,186.960 66.547 C 188.549 66.578,188.821 66.621,188.740 66.833 C 188.687 66.971,188.532 67.571,188.396 68.167 C 188.259 68.762,187.999 69.757,187.817 70.376 C 186.733 74.059,186.333 77.446,186.729 79.583 C 187.163 81.928,187.327 82.409,187.923 83.078 C 188.240 83.435,188.500 83.780,188.500 83.845 C 188.500 84.471,192.535 85.840,193.048 85.388 C 193.251 85.208,193.735 84.924,194.125 84.756 C 194.528 84.582,195.193 84.048,195.669 83.517 C 196.129 83.003,196.687 82.396,196.910 82.167 C 197.133 81.938,197.403 81.375,197.510 80.917 C 197.618 80.458,197.772 79.953,197.853 79.794 C 198.301 78.911,197.866 78.786,196.817 79.497 C 194.457 81.096,193.308 78.585,194.613 74.681 C 194.841 74.002,195.131 72.899,195.259 72.230 C 195.387 71.561,195.644 70.731,195.829 70.385 C 196.015 70.038,196.167 69.657,196.167 69.538 C 196.167 69.239,196.986 66.658,197.211 66.250 C 197.312 66.067,197.499 65.710,197.626 65.458 C 197.754 65.206,197.954 65.000,198.072 65.000 C 198.190 65.000,198.728 64.771,199.268 64.491 C 201.068 63.558,205.780 62.000,206.800 62.000 C 207.091 62.000,207.452 61.863,207.619 61.689 C 207.830 61.468,208.243 61.352,209.043 61.291 C 209.663 61.244,210.299 61.102,210.457 60.977 C 210.726 60.765,210.728 60.777,210.484 61.167 C 210.341 61.396,210.052 62.146,209.842 62.833 C 209.632 63.521,209.323 64.496,209.156 65.000 C 207.667 69.495,207.723 79.480,209.248 81.164 C 209.386 81.317,209.500 81.521,209.500 81.617 C 209.500 82.655,212.021 85.337,213.364 85.727 C 214.769 86.136,216.097 85.887,216.281 85.181 C 216.324 85.016,216.597 84.769,216.888 84.631 L 217.417 84.380 216.833 84.019 C 216.512 83.821,216.103 83.695,215.923 83.739 C 214.956 83.979,213.018 82.803,213.005 81.968 C 213.002 81.813,212.920 81.637,212.822 81.576 C 212.724 81.516,212.686 81.356,212.738 81.221 C 212.790 81.086,212.686 80.625,212.507 80.196 C 211.494 77.769,211.424 75.176,212.259 71.081 C 212.502 69.891,212.757 68.546,212.825 68.092 C 212.893 67.638,213.035 67.238,213.141 67.203 C 213.247 67.168,213.333 67.033,213.333 66.904 C 213.333 66.627,214.118 64.212,214.344 63.794 C 214.430 63.635,214.500 63.367,214.500 63.200 C 214.500 63.032,214.912 62.083,215.417 61.091 C 215.921 60.099,216.333 59.199,216.333 59.092 C 216.333 58.985,216.577 58.489,216.876 57.990 C 217.174 57.491,217.563 56.746,217.740 56.333 C 217.918 55.921,218.165 55.461,218.289 55.311 C 218.414 55.162,218.595 54.749,218.691 54.395 C 218.788 54.040,218.968 53.635,219.092 53.495 C 219.458 53.083,220.801 50.361,220.924 49.783 C 220.987 49.490,221.260 48.786,221.532 48.218 C 222.068 47.098,222.485 45.573,222.494 44.700 C 222.510 43.258,221.097 42.179,220.319 43.038 M281.745 49.733 C 281.186 49.976,279.632 52.272,278.743 54.167 C 278.593 54.487,278.214 55.248,277.901 55.857 C 277.589 56.466,277.332 57.066,277.330 57.190 C 277.321 57.839,276.340 58.984,275.713 59.076 C 273.188 59.447,271.269 60.008,269.393 60.921 C 268.739 61.239,268.088 61.500,267.946 61.500 C 267.198 61.500,266.620 63.429,267.090 64.360 C 267.917 65.997,268.958 66.500,271.617 66.548 L 273.604 66.583 273.141 67.917 C 272.886 68.650,272.674 69.438,272.669 69.667 C 272.665 69.896,272.436 70.833,272.160 71.750 C 271.171 75.043,271.020 78.821,271.771 81.465 C 272.460 83.891,276.435 86.377,277.888 85.291 C 278.179 85.074,278.650 84.802,278.936 84.687 C 279.221 84.572,279.683 84.239,279.963 83.948 C 281.216 82.638,281.817 81.873,281.923 81.451 C 281.986 81.201,282.104 80.956,282.185 80.905 C 282.267 80.855,282.333 80.598,282.333 80.333 C 282.333 80.069,282.408 79.807,282.500 79.750 C 282.713 79.619,282.719 79.000,282.507 79.000 C 282.420 79.000,281.966 79.225,281.500 79.500 C 280.411 80.142,279.852 80.141,279.161 79.495 L 278.620 78.989 278.730 77.668 C 278.790 76.941,278.983 75.875,279.159 75.298 C 279.334 74.722,279.553 73.837,279.646 73.333 C 279.739 72.829,279.974 71.967,280.168 71.417 C 280.363 70.867,280.589 70.101,280.671 69.715 C 280.753 69.330,281.000 68.655,281.220 68.215 C 281.439 67.776,281.662 67.137,281.715 66.795 C 281.853 65.903,282.570 65.039,283.345 64.830 C 283.698 64.735,284.031 64.584,284.087 64.494 C 284.200 64.311,285.474 63.667,285.723 63.667 C 285.811 63.667,286.603 63.412,287.483 63.101 C 289.746 62.300,290.854 62.000,291.550 62.000 C 291.970 62.000,292.206 61.905,292.321 61.690 C 292.450 61.448,292.739 61.361,293.621 61.298 C 294.410 61.241,295.007 61.083,295.584 60.775 C 296.041 60.532,296.662 60.287,296.964 60.230 C 297.581 60.114,297.588 59.912,296.989 59.470 C 296.459 59.077,290.623 58.255,286.863 58.043 C 285.158 57.947,285.160 57.951,285.748 55.877 C 286.893 51.844,284.683 48.453,281.745 49.733 M172.980 60.980 L 173.000 65.543 171.646 65.425 C 169.719 65.257,169.772 65.296,169.892 64.099 C 169.949 63.540,170.151 62.483,170.341 61.750 C 170.532 61.017,170.757 60.042,170.842 59.583 C 171.203 57.628,171.493 56.370,171.738 55.687 C 171.882 55.286,172.000 54.810,172.000 54.630 C 172.000 54.449,172.169 53.765,172.375 53.109 L 172.750 51.917 172.855 54.167 C 172.913 55.404,172.969 58.470,172.980 60.980 M298.723 54.833 C 298.525 54.913,298.316 55.125,298.259 55.305 C 298.202 55.484,298.008 55.669,297.828 55.716 C 297.318 55.850,297.341 58.392,297.857 58.941 C 298.053 59.150,298.296 59.487,298.398 59.690 C 299.001 60.893,301.786 60.281,302.151 58.866 C 302.956 55.747,301.297 53.795,298.723 54.833 M257.949 59.594 C 256.616 59.960,255.000 60.811,255.000 61.148 C 255.000 61.730,254.149 61.619,253.831 60.996 C 253.645 60.631,253.420 60.324,253.330 60.313 C 249.810 59.863,249.318 60.270,247.864 64.833 C 247.544 65.838,246.834 68.900,246.834 69.275 C 246.833 69.472,246.572 70.447,246.252 71.442 C 245.932 72.436,245.669 73.361,245.668 73.496 C 245.667 73.631,245.412 74.569,245.100 75.579 C 244.788 76.590,244.486 77.864,244.428 78.411 C 244.370 78.958,244.212 79.625,244.078 79.895 C 243.689 80.674,243.795 81.667,244.268 81.667 C 244.396 81.667,244.500 81.745,244.500 81.841 C 244.500 81.937,244.838 82.358,245.250 82.777 C 245.662 83.195,246.000 83.604,246.000 83.685 C 246.000 83.893,247.970 83.871,248.215 83.661 C 248.326 83.566,248.547 83.397,248.707 83.286 C 249.028 83.063,250.131 80.588,250.321 79.667 C 250.387 79.346,250.534 78.912,250.646 78.703 C 250.759 78.494,251.035 77.757,251.261 77.065 C 251.487 76.372,251.792 75.574,251.939 75.290 C 252.237 74.715,252.711 73.477,253.678 70.750 C 254.036 69.742,254.475 68.617,254.653 68.250 C 254.831 67.883,255.144 67.143,255.349 66.605 C 255.772 65.493,256.437 65.055,257.421 65.240 C 258.497 65.442,258.714 66.025,258.506 68.167 C 258.118 72.167,257.980 73.175,257.736 73.757 C 257.555 74.192,257.530 74.416,257.656 74.494 C 257.773 74.566,257.824 75.280,257.800 76.511 C 257.762 78.493,257.780 78.658,258.214 80.167 C 258.359 80.671,258.609 81.571,258.769 82.167 C 259.411 84.553,262.497 87.584,263.172 86.491 C 263.287 86.306,263.379 86.323,263.666 86.583 C 263.957 86.846,264.069 86.866,264.301 86.696 C 264.456 86.583,264.715 86.446,264.875 86.392 C 265.247 86.268,265.245 86.250,264.760 85.253 C 262.713 81.044,262.502 77.138,264.013 71.417 C 264.445 69.782,264.719 68.882,265.181 67.583 C 265.858 65.682,265.381 61.500,264.486 61.500 C 264.402 61.500,264.333 61.399,264.333 61.276 C 264.333 60.883,263.699 60.457,262.137 59.803 C 260.372 59.065,259.954 59.044,257.949 59.594 M322.478 60.810 C 321.686 61.806,321.535 61.922,321.167 61.818 C 319.791 61.429,316.229 62.916,314.570 64.571 C 314.380 64.761,313.922 65.179,313.553 65.500 C 313.184 65.821,312.454 66.458,311.930 66.917 C 310.997 67.733,307.667 71.377,307.667 71.581 C 307.667 71.638,307.440 71.924,307.163 72.217 C 306.886 72.510,306.613 72.938,306.556 73.167 C 306.499 73.396,306.304 73.880,306.123 74.242 C 305.512 75.459,305.610 78.160,306.317 79.628 C 307.271 81.607,309.310 82.319,311.489 81.434 C 312.765 80.916,313.084 80.884,312.915 81.292 C 312.848 81.452,312.693 81.996,312.570 82.500 C 312.447 83.004,312.110 84.354,311.822 85.500 C 311.534 86.646,311.237 87.996,311.162 88.500 C 311.087 89.004,310.801 90.692,310.527 92.250 C 309.289 99.275,309.373 105.557,310.745 108.556 C 310.977 109.064,311.167 109.557,311.167 109.653 C 311.167 109.899,311.915 110.057,312.458 109.925 C 313.054 109.780,314.963 107.774,315.500 106.728 C 315.729 106.282,316.121 105.606,316.371 105.226 C 316.833 104.524,318.167 101.585,318.167 101.270 C 318.167 101.127,318.912 99.496,319.540 98.266 C 320.540 96.306,320.820 95.627,320.923 94.917 C 320.989 94.458,321.146 93.881,321.272 93.633 C 321.543 93.098,321.572 91.545,321.323 90.889 C 321.186 90.530,321.209 90.219,321.424 89.538 C 321.930 87.929,321.292 87.094,320.598 88.458 C 320.376 88.894,319.894 89.813,319.525 90.500 C 317.762 93.792,315.275 99.019,314.727 100.583 C 314.598 100.950,314.260 101.813,313.976 102.500 C 313.691 103.188,313.336 104.047,313.187 104.411 L 312.917 105.071 312.719 103.994 C 312.474 102.660,312.662 99.929,313.155 97.674 C 313.345 96.808,313.500 95.867,313.500 95.583 C 313.500 95.299,313.567 94.995,313.650 94.908 C 313.795 94.754,314.159 93.558,314.837 91.000 C 315.019 90.313,315.310 89.412,315.483 89.000 C 315.656 88.587,315.853 87.914,315.920 87.503 C 315.987 87.092,316.215 86.529,316.425 86.253 C 316.636 85.976,316.927 85.236,317.072 84.608 C 317.218 83.979,317.479 83.285,317.652 83.064 C 317.826 82.843,318.056 82.295,318.164 81.845 C 318.272 81.395,318.504 80.897,318.680 80.738 C 318.856 80.579,319.000 80.335,319.000 80.197 C 319.000 80.059,319.178 79.639,319.395 79.265 C 319.613 78.890,319.849 78.396,319.919 78.167 C 319.990 77.938,320.216 77.525,320.421 77.250 C 320.627 76.975,320.851 76.563,320.920 76.333 C 320.989 76.104,321.186 75.738,321.356 75.519 C 321.527 75.301,321.667 75.030,321.667 74.917 C 321.667 74.805,321.901 74.196,322.188 73.565 C 322.475 72.933,322.921 71.779,323.179 71.000 C 323.827 69.046,324.081 68.365,324.552 67.319 C 324.776 66.823,325.053 66.117,325.168 65.750 C 325.283 65.383,325.430 65.008,325.494 64.917 C 325.559 64.825,325.781 64.300,325.987 63.750 C 326.193 63.200,326.468 62.551,326.598 62.308 C 327.365 60.868,326.530 59.893,324.409 59.753 L 323.372 59.684 322.478 60.810 M331.786 60.662 C 331.376 61.118,331.003 61.662,330.957 61.870 C 330.910 62.079,330.646 62.813,330.369 63.500 C 327.711 70.099,326.733 77.582,328.088 80.966 C 329.391 84.223,331.731 85.395,333.977 83.917 C 334.464 83.596,334.909 83.333,334.966 83.333 C 335.270 83.333,337.782 80.420,338.335 79.427 C 339.063 78.119,339.013 78.064,339.310 80.500 C 339.634 83.152,340.134 83.746,341.689 83.327 C 342.446 83.124,342.453 83.078,342.064 81.013 C 341.552 78.301,342.165 73.105,343.511 68.750 C 344.474 65.636,344.804 61.983,344.215 60.985 C 343.392 59.593,339.370 60.373,339.340 61.931 C 339.336 62.122,339.071 62.818,338.750 63.477 C 338.429 64.136,338.167 64.755,338.167 64.853 C 338.167 64.950,337.877 65.717,337.523 66.557 C 336.748 68.393,336.267 69.580,335.757 70.917 C 333.719 76.253,332.840 78.127,332.478 77.903 C 332.212 77.739,332.329 74.567,332.671 72.645 C 332.857 71.603,333.124 69.925,333.266 68.917 C 333.408 67.908,333.743 66.212,334.012 65.146 C 334.796 62.035,334.596 60.161,333.456 59.933 C 332.634 59.769,332.560 59.801,331.786 60.662 M234.843 60.932 C 234.436 61.060,234.027 61.240,233.935 61.332 C 233.842 61.424,233.679 61.500,233.571 61.500 C 233.344 61.500,231.561 62.513,230.226 63.400 C 228.329 64.660,226.996 65.572,226.483 65.962 C 223.956 67.878,223.258 68.456,222.083 69.610 C 219.157 72.484,217.958 74.935,217.724 78.519 C 217.610 80.266,218.166 81.827,219.060 82.269 C 219.256 82.366,219.717 82.605,220.083 82.800 C 220.978 83.276,223.051 83.705,223.540 83.515 C 223.747 83.434,224.239 83.272,224.633 83.155 C 225.027 83.037,225.552 82.767,225.800 82.554 C 226.047 82.341,226.317 82.167,226.400 82.167 C 226.796 82.166,229.209 79.998,229.750 79.157 C 229.959 78.830,230.743 77.869,231.490 77.021 L 232.849 75.480 232.716 76.782 C 232.214 81.700,233.001 86.079,234.681 87.721 C 235.040 88.072,235.333 88.419,235.333 88.492 C 235.333 88.672,236.100 88.951,236.895 89.062 C 237.449 89.140,237.609 89.083,238.029 88.664 C 238.298 88.395,238.814 88.086,239.175 87.978 C 240.039 87.719,240.047 87.301,239.195 86.967 C 238.263 86.600,237.500 85.411,237.500 84.325 C 237.500 83.855,237.424 83.500,237.323 83.500 C 237.226 83.500,237.187 83.435,237.236 83.356 C 237.285 83.277,237.411 82.471,237.516 81.564 C 237.621 80.658,237.762 79.842,237.831 79.750 C 237.899 79.658,238.127 78.796,238.336 77.833 C 238.546 76.871,238.851 75.821,239.013 75.500 C 239.175 75.179,239.435 74.542,239.591 74.083 C 239.943 73.044,240.907 70.434,241.467 69.000 C 242.173 67.195,242.254 64.317,241.626 63.369 C 240.993 62.411,239.133 62.100,238.280 62.809 C 238.115 62.945,238.083 62.865,238.131 62.448 C 238.178 62.047,238.086 61.795,237.764 61.447 C 237.527 61.192,237.333 60.912,237.333 60.825 C 237.333 60.593,235.700 60.663,234.843 60.932 M363.500 61.293 C 363.087 61.432,362.111 61.835,361.331 62.190 C 360.550 62.544,359.851 62.833,359.776 62.833 C 359.555 62.833,357.446 64.111,357.049 64.486 C 356.846 64.677,356.607 64.833,356.517 64.833 C 356.427 64.833,355.993 65.135,355.552 65.504 C 355.111 65.873,354.675 66.231,354.583 66.300 C 352.664 67.744,352.057 68.260,351.026 69.322 C 347.946 72.497,346.825 74.883,347.352 77.148 C 347.429 77.479,347.499 78.125,347.507 78.583 C 347.517 79.158,347.670 79.701,348.003 80.333 C 348.267 80.837,348.567 81.434,348.667 81.659 C 349.096 82.615,351.016 84.167,351.769 84.167 C 352.156 84.167,352.497 84.237,352.528 84.323 C 352.628 84.603,356.111 85.208,356.482 85.010 C 356.663 84.913,357.206 84.833,357.689 84.833 C 358.872 84.833,361.341 84.506,361.737 84.297 C 361.913 84.204,362.344 84.132,362.694 84.137 C 363.044 84.142,363.425 84.055,363.540 83.945 C 363.656 83.834,364.181 83.610,364.708 83.447 C 365.235 83.283,365.667 83.087,365.667 83.010 C 365.667 82.933,365.927 82.822,366.245 82.762 C 366.563 82.702,366.919 82.562,367.036 82.450 C 367.154 82.338,367.442 82.161,367.678 82.057 C 368.588 81.655,370.000 80.644,370.000 80.394 C 370.000 80.077,369.561 80.117,367.000 80.667 C 365.029 81.090,359.680 81.226,358.955 80.871 C 358.750 80.771,358.133 80.613,357.583 80.519 C 355.263 80.125,354.339 79.850,353.517 79.312 C 352.241 78.476,352.142 77.602,353.301 77.409 C 353.640 77.352,354.389 77.087,354.966 76.820 C 355.543 76.552,356.126 76.333,356.263 76.333 C 356.399 76.333,356.551 76.228,356.601 76.098 C 356.650 75.969,356.854 75.822,357.054 75.772 C 357.412 75.682,357.698 75.491,358.726 74.660 C 359.014 74.427,359.456 74.148,359.708 74.039 C 359.960 73.930,360.167 73.764,360.167 73.670 C 360.167 73.577,360.282 73.500,360.422 73.500 C 360.799 73.500,366.000 68.239,366.000 67.858 C 366.000 67.684,366.125 67.438,366.277 67.312 C 367.224 66.530,367.785 62.631,367.101 61.587 C 366.697 60.970,364.894 60.823,363.500 61.293 M236.193 65.292 C 235.901 65.636,235.484 66.179,235.266 66.500 C 235.048 66.821,234.142 67.833,233.252 68.750 C 229.563 72.548,228.466 73.594,224.705 76.899 C 224.357 77.204,224.305 77.209,224.059 76.963 C 223.772 76.677,223.749 76.789,224.474 74.873 C 225.176 73.018,228.738 69.320,231.896 67.167 C 232.098 67.029,232.530 66.710,232.856 66.458 C 233.181 66.206,233.500 66.000,233.564 66.000 C 233.628 66.000,234.070 65.737,234.546 65.417 C 235.022 65.096,235.563 64.832,235.748 64.831 C 235.932 64.829,236.194 64.758,236.329 64.673 C 236.787 64.383,236.725 64.667,236.193 65.292 M297.860 65.144 C 297.573 65.280,297.296 65.522,297.246 65.681 C 297.195 65.839,297.055 66.007,296.935 66.053 C 296.389 66.263,293.145 71.616,292.652 73.120 C 292.538 73.467,292.255 74.237,292.022 74.833 C 291.209 76.909,291.344 81.355,292.277 83.260 C 293.171 85.085,295.611 86.585,297.118 86.235 C 297.647 86.112,298.105 85.934,298.137 85.839 C 298.169 85.744,298.282 85.666,298.389 85.665 C 298.496 85.664,298.889 85.420,299.263 85.123 C 299.636 84.826,300.229 84.433,300.580 84.250 C 300.931 84.067,301.391 83.748,301.601 83.542 C 301.812 83.335,302.063 83.167,302.159 83.167 C 302.255 83.167,302.333 83.041,302.333 82.888 C 302.333 82.735,302.437 82.491,302.564 82.346 C 302.821 82.054,303.690 79.968,303.595 79.872 C 303.561 79.839,303.133 79.893,302.642 79.991 C 300.469 80.427,299.673 80.538,299.417 80.440 C 298.902 80.242,299.240 76.843,300.021 74.367 C 300.376 73.240,300.667 72.206,300.667 72.071 C 300.667 71.935,300.892 71.378,301.167 70.833 C 302.727 67.743,300.492 63.898,297.860 65.144 M363.268 65.542 C 363.026 65.840,362.759 66.233,362.676 66.417 C 362.199 67.474,359.294 70.007,357.543 70.895 C 357.074 71.133,356.645 71.400,356.590 71.490 C 356.534 71.579,356.040 71.779,355.490 71.933 C 354.941 72.087,354.451 72.278,354.402 72.357 C 354.354 72.435,354.086 72.500,353.807 72.500 L 353.301 72.500 353.775 71.916 C 356.545 68.505,358.469 67.005,361.833 65.630 C 362.429 65.386,363.067 65.154,363.250 65.113 C 363.433 65.072,363.612 65.030,363.646 65.019 C 363.681 65.009,363.511 65.244,363.268 65.542 M318.932 66.625 C 318.535 67.427,318.157 68.253,318.093 68.461 C 318.028 68.669,317.325 70.039,316.530 71.506 C 315.734 72.973,314.952 74.415,314.792 74.711 C 313.516 77.073,311.163 78.353,311.168 76.683 C 311.170 76.063,312.965 72.981,314.770 70.500 C 316.462 68.173,316.859 67.693,318.158 66.401 C 319.738 64.830,319.811 64.851,318.932 66.625 "
              stroke="none" fill="#2c94bc" fill-rule="evenodd"></path>
        <path id="path2" d="" stroke="none" fill="#88ac48" fill-rule="evenodd"></path>
    </g>
</svg>
